<svg xmlns="http://www.w3.org/2000/svg" viewBox="0 0 1500 1500" width="24" height="24"><defs><linearGradient id="prefix__e" spreadMethod="pad" gradientUnits="userSpaceOnUse" x1="96.454" y1="178.563" x2="-104.09" y2="14.631"><stop offset="1%" stop-color="#FCD35C" stop-opacity="0"/><stop offset="50%" stop-color="#FCD35C" stop-opacity=".5"/><stop offset="100%" stop-color="#FCD35C"/></linearGradient><linearGradient id="prefix__c" spreadMethod="pad" gradientUnits="userSpaceOnUse" x1="-37.54" y1="40.927" x2="-17.993" y2="54.689"><stop offset="0%" stop-color="#F1F3F4"/><stop offset="50%" stop-color="#E7E8E8"/><stop offset="100%" stop-color="#DCDCDC"/></linearGradient><linearGradient id="prefix__b" spreadMethod="pad" gradientUnits="userSpaceOnUse" x1="-231.8" y1="-233.332" x2="14.756" y2="20.462"><stop offset="0%" stop-color="#FFEBAF"/><stop offset="50%" stop-color="#FDD35A"/><stop offset="100%" stop-color="#FBBC04"/></linearGradient><clipPath id="prefix__a"><path d="M0 0h1500v1500H0z"/></clipPath><mask id="prefix__d"><path d="M12 0c6.623 0 12 5.377 12 12s-5.377 12-12 12S0 18.623 0 12 5.377 0 12 0z" transform="matrix(20.3125 0 0 20.3125 587.5 763.4)" display="block"/></mask></defs><g clip-path="url(#prefix__a)"><path fill="url(#prefix__b)" d="M0-208.773c115.222 0 208.773 93.55 208.773 208.773 0 115.222-93.55 208.773-208.773 208.773-115.222 0-208.773-93.55-208.773-208.773 0-115.222 93.55-208.773 208.773-208.773z" transform="matrix(1.82031 0 0 1.79068 751.083 632.257)" display="block"/><path fill="url(#prefix__c)" d="M-34.25 27.083c-6.627 0-12 5.373-12 12 0 .742.077 1.465.206 2.17-4.665.847-8.206 4.921-8.206 9.83h20c6.627 0 12-5.373 12-12s-5.373-12-12-12z" transform="matrix(20.26 0 0 20.26 1525.579 214.262)" display="block"/><g mask="url(#prefix__d)" display="block"><path fill="url(#prefix__e)" d="M0-208.773c115.222 0 208.773 93.55 208.773 208.773 0 115.222-93.55 208.773-208.773 208.773-115.222 0-208.773-93.55-208.773-208.773 0-115.222 93.55-208.773 208.773-208.773z" transform="matrix(1.82031 0 0 1.79068 751.083 632.257)"/></g><path fill="#F0F2F4" d="M627.628 1046.942c-112.125 0-203.125 91.264-203.125 203.39.203-.407 406.453-.671 406.25-.265 0-112.125-91-203.125-203.125-203.125z" opacity=".7" display="block"/></g></svg>